<svg width="14" height="12" viewBox="0 0 14 12" fill="none" xmlns="http://www.w3.org/2000/svg">
<path d="M12.3281 0.672424H1.67188C1.29688 0.672424 0.979167 0.802632 0.71875 1.06305C0.458333 1.32347 0.328125 1.63597 0.328125 2.00055V10.0005C0.328125 10.3651 0.458333 10.6776 0.71875 10.938C0.979167 11.1985 1.29688 11.3287 1.67188 11.3287H12.3281C12.7031 11.3287 13.0208 11.1985 13.2812 10.938C13.5417 10.6776 13.6719 10.3651 13.6719 10.0005V2.00055C13.6719 1.63597 13.5417 1.32347 13.2812 1.06305C13.0208 0.802632 12.7031 0.672424 12.3281 0.672424ZM12.3281 2.00055V2.3443L7 6.48492L1.67188 2.3443V2.00055H12.3281ZM1.67188 10.0005V4.0318L6.59375 7.85992C6.65625 7.91201 6.72135 7.94847 6.78906 7.9693C6.85677 7.99013 6.92708 8.00055 7 8.00055C7.07292 8.00055 7.14323 7.99013 7.21094 7.9693C7.27865 7.94847 7.34375 7.91201 7.40625 7.85992L12.3281 4.0318V10.0005H1.67188Z" fill="#E73E58"/>
</svg>
