<svg width="14" height="14" viewBox="0 0 14 14" fill="none" xmlns="http://www.w3.org/2000/svg">
<path d="M10.0469 13.373C10.0469 13.373 10.0495 13.373 10.0547 13.373C10.0599 13.373 10.0625 13.373 10.0625 13.373C10.2396 13.373 10.4089 13.3392 10.5703 13.2715C10.7318 13.2038 10.875 13.1074 11 12.9824L12.8125 11.1699C12.9375 11.0345 13 10.8757 13 10.6934C13 10.5111 12.9375 10.3574 12.8125 10.2324L10.1406 7.56055C10.0052 7.42513 9.84635 7.35742 9.66406 7.35742C9.48177 7.35742 9.32812 7.42513 9.20312 7.56055L8.14062 8.62305C7.89062 8.55013 7.56771 8.42773 7.17188 8.25586C6.77604 8.08398 6.43229 7.85221 6.14062 7.56055C5.84896 7.26888 5.61719 6.92513 5.44531 6.5293C5.27344 6.13346 5.15104 5.81055 5.07812 5.56055L6.14062 4.49805C6.27604 4.37305 6.34375 4.2168 6.34375 4.0293C6.34375 3.8418 6.27604 3.68555 6.14062 3.56055L3.46875 0.888672C3.34375 0.763672 3.1875 0.701172 3 0.701172C2.8125 0.701172 2.65625 0.763672 2.53125 0.888672L0.71875 2.70117C0.59375 2.82617 0.497396 2.972 0.429688 3.13867C0.361979 3.30534 0.328125 3.47721 0.328125 3.6543C0.338542 3.89388 0.369792 4.26367 0.421875 4.76367C0.473958 5.26367 0.598958 5.83138 0.796875 6.4668C0.994792 7.10221 1.28125 7.76888 1.65625 8.4668C2.03125 9.17513 2.54688 9.85221 3.20312 10.498C3.84896 11.1543 4.52604 11.6699 5.23438 12.0449C5.93229 12.4199 6.59896 12.7064 7.23438 12.9043C7.86979 13.1022 8.4375 13.2272 8.9375 13.2793C9.4375 13.3314 9.80729 13.3626 10.0469 13.373ZM3 2.31055L4.73438 4.0293L3.85938 4.88867C3.78646 4.972 3.73438 5.06836 3.70312 5.17773C3.67188 5.28711 3.66667 5.39388 3.6875 5.49805C3.69792 5.53971 3.8151 5.91211 4.03906 6.61523C4.26302 7.31836 4.65104 7.94596 5.20312 8.49805C5.75521 9.05013 6.38281 9.43815 7.08594 9.66211C7.78906 9.88607 8.16146 10.0033 8.20312 10.0137C8.30729 10.0345 8.41406 10.0293 8.52344 9.99805C8.63281 9.9668 8.72917 9.91471 8.8125 9.8418L9.67188 8.9668L11.3906 10.7012L10.0625 12.0293C9.85417 12.0293 9.53125 12.0033 9.09375 11.9512C8.66667 11.9095 8.17708 11.8027 7.625 11.6309C7.07292 11.459 6.49479 11.2116 5.89062 10.8887C5.28646 10.5658 4.70312 10.123 4.14062 9.56055C3.57812 8.99805 3.13542 8.41471 2.8125 7.81055C2.47917 7.19596 2.22917 6.61523 2.0625 6.06836C1.89583 5.52148 1.79167 5.0293 1.75 4.5918C1.69792 4.16471 1.67188 3.847 1.67188 3.63867L3 2.31055ZM12.3281 6.0293H13.6719C13.6719 5.17513 13.5156 4.38346 13.2031 3.6543C12.901 2.92513 12.4818 2.29232 11.9453 1.75586C11.4089 1.2194 10.776 0.80013 10.0469 0.498047C9.30729 0.185547 8.51042 0.0292969 7.65625 0.0292969V1.37305C8.33333 1.37305 8.95833 1.48763 9.53125 1.7168C10.1042 1.94596 10.599 2.26888 11.0156 2.68555C11.4323 3.10221 11.7552 3.597 11.9844 4.16992C12.2135 4.73242 12.3281 5.35221 12.3281 6.0293ZM7.67188 4.0293C8.36979 4.0293 8.8776 4.18815 9.19531 4.50586C9.51302 4.82357 9.67188 5.33138 9.67188 6.0293H11C11 4.95638 10.7135 4.13346 10.1406 3.56055C9.56771 2.98763 8.74479 2.70117 7.67188 2.70117V4.0293Z" fill="#E73E58"/>
</svg>
